<svg width="82" height="42" viewBox="0 0 82 42" fill="none" xmlns="http://www.w3.org/2000/svg">
<path d="M62.5002 0.965008C63.5262 0.408008 64.9662 0.247008 65.8562 1.07201C66.7462 1.89701 66.5322 3.12001 65.8562 5.04501C65.8562 5.04501 64.3512 9.11101 62.8012 13.307L62.4032 14.387C60.9892 18.217 59.6412 21.874 59.4762 22.35C57.9782 26.595 61.4432 26.472 63.5002 22.198C64.6592 19.804 66.1442 15.841 66.1442 15.841C66.6682 14.278 66.8262 13.337 66.5032 13.013C66.3962 12.9 66.5482 12.761 66.6832 12.69C68.9522 11.541 71.3132 12.618 70.0192 16L69.9652 16.138C69.5782 17.116 67.2852 22.871 67.2852 22.871C66.6092 24.531 66.6902 26.107 67.7032 26.107C68.3892 26.103 69.1632 25.722 70.0072 25.019C71.8252 23.515 73.2292 20.707 73.7342 19.565C73.9642 19.057 74.8212 17.145 75.5002 15.204C75.7362 14.539 75.8692 13.844 75.8952 13.139C75.8778 13.0519 75.887 12.9615 75.9216 12.8796C75.9562 12.7978 76.0146 12.7282 76.0892 12.68C76.6034 12.4061 77.1767 12.262 77.7592 12.26C78.0416 12.2547 78.3212 12.3158 78.5756 12.4382C78.83 12.5607 79.0522 12.7411 79.2242 12.965C79.6672 13.563 79.7902 14.544 79.3272 15.773C79.2072 16.093 75.5522 25.731 75.5522 25.731V25.757C77.5932 24.534 79.4222 24.444 80.5052 24.903L80.5022 24.89C81.9972 25.537 82.4922 27.33 81.4402 28.449C81.3372 28.559 81.0782 28.533 81.0782 28.359C80.9842 27.106 78.5612 24.864 74.9692 27.284L74.8242 27.669L73.7562 30.477C71.1362 37.495 68.3532 42.613 64.3412 41.477C61.6532 40.717 61.9642 36.87 64.8562 33.687C66.8588 31.5511 69.0291 29.5788 71.3462 27.789C71.4142 27.601 71.4762 27.439 71.5342 27.278C71.8122 26.498 72.0252 25.844 72.3262 25.013L72.4852 24.495C72.3072 24.695 71.9872 25.068 71.7732 25.307C71.0612 26.107 69.2792 28.064 66.4442 27.514L66.2102 27.462C64.1602 26.954 63.6022 25.476 63.5552 24.185C61.4132 26.841 59.2042 27.611 57.7482 27.575C55.8002 27.527 54.3702 26.061 55.3212 23.285C56.3792 20.179 60.8212 7.95301 62.1162 4.28501C62.6012 2.70501 62.7822 1.70501 62.3002 1.31101C62.1772 1.20801 62.3522 1.04601 62.5002 0.965008ZM70.8642 29.743C69.7612 30.623 65.3382 34.273 64.1122 37.184C63.6072 38.381 63.7362 39.333 64.6002 39.417C66.5602 39.611 68.6122 35.599 70.8282 29.905L70.8642 29.743ZM16.0282 5.35201C15.9412 5.68401 14.7092 9.21201 13.3272 13.101L13.1182 13.687L12.9082 14.276L12.6932 14.88C17.3842 13.757 25.7572 8.31001 26.7282 4.79501C26.8482 4.63401 27.0182 4.57501 27.2942 4.76001C27.7892 5.09001 27.9802 5.91501 27.7892 6.67801C27.0252 9.71601 21.3732 14.019 16.4102 16.232C17.0222 17.869 19.0922 22.499 20.6162 25.343C22.2792 28.462 24.0362 29.918 26.7632 30.08C28.2232 30.165 29.7772 29.633 30.6562 28.86L30.8042 28.72L30.7912 28.75C30.9852 28.546 31.3022 28.827 31.1572 29.073C30.6012 29.9022 29.8616 30.5921 28.9959 31.0893C28.1302 31.5865 27.1616 31.8776 26.1652 31.94C19.8202 32.367 17.3912 28.07 12.8612 17.446C12.4952 17.572 12.0522 17.734 11.6062 17.896C11.5312 18.083 9.53624 23.538 9.47624 23.719C8.53224 26.589 8.47124 28.161 9.11824 28.614C9.26324 28.704 9.19224 28.947 8.94024 29.028C6.41324 29.824 4.08724 28.332 5.38124 24.586C6.54224 21.27 11.0712 8.40601 12.2952 4.96001C12.7222 3.66601 12.4922 2.83501 11.8032 2.65401C8.50624 1.78001 0.877239 8.74901 1.97124 15.184C2.16124 16.304 2.95124 16.931 3.34924 16.847C3.37092 16.8427 3.39335 16.8438 3.41448 16.8503C3.43562 16.8568 3.4548 16.8685 3.47028 16.8843C3.48577 16.9001 3.49708 16.9195 3.50318 16.9407C3.50929 16.962 3.50999 16.9844 3.50524 17.006C3.39441 17.3856 3.13894 17.7064 2.79385 17.8994C2.44876 18.0925 2.04166 18.1422 1.66024 18.038C0.490239 17.782 0.107239 16.527 0.0432389 15.88C-0.600761 9.22001 6.14824 1.23001 12.3892 0.580008C14.7672 0.330008 16.9982 1.54001 16.0282 5.35201ZM40.0682 15.265L40.0082 15.472L37.1782 23.632C36.8742 24.482 37.0782 25.369 37.6792 25.534C39.4362 26.016 41.7072 23.389 42.8102 20.801C43.3405 19.5445 43.8327 18.2722 44.2862 16.986C44.8682 15.343 45.3922 13.803 45.0692 13.078C44.9942 12.91 45.1142 12.822 45.2922 12.728C45.7972 12.473 47.5182 11.903 48.4332 12.796C49.1282 13.47 49.0422 14.567 48.4032 16.233L48.3072 16.475L48.5272 16.202C51.2302 12.902 53.3192 11.91 55.0902 12.605L55.2372 12.667C57.6182 13.741 56.3832 17.882 53.1212 18.147C52.9212 18.164 52.7652 18.021 52.9632 17.74C53.3582 17.135 53.3192 15.831 52.1672 15.718C51.0152 15.605 49.3372 16.925 48.1292 18.562C47.0452 20.012 45.9292 22.473 44.8072 25.835C44.5352 26.653 44.6642 26.847 44.6972 26.902C44.7049 26.9165 44.709 26.9326 44.709 26.949C44.709 26.9654 44.7049 26.9815 44.6972 26.996C44.5542 27.268 43.7322 27.592 42.9372 27.592C41.3122 27.585 40.6462 26.647 40.9702 25.155C39.1222 26.919 37.2592 27.769 35.6152 27.621C35.2535 27.5896 34.9029 27.4805 34.5872 27.3012C34.2715 27.1219 33.9982 26.8766 33.7859 26.5821C33.5737 26.2875 33.4275 25.9506 33.3573 25.5944C33.2871 25.2382 33.2946 24.8711 33.3792 24.518C31.9532 26.327 29.8372 27.786 27.6822 27.585C25.5272 27.385 24.1822 25.919 24.8802 22.797C25.4702 20.199 28.2197 13.687 31.5002 11.5C33.0002 10.5 34.6659 10.678 35.0002 10.5C36.5002 11 36.7234 11.4523 36.2072 12.9468C34.0002 13 32.5002 14.5 31.1572 16.202C29.2559 18.1878 28.1561 21.5192 28.0002 22C27.2632 24.287 28.3652 25.709 29.4102 25.766C30.4552 25.826 31.8402 24.806 32.8302 23.263C34.5902 20.739 35.4112 17.578 36.2072 15.381C36.4112 14.821 37.0002 13.5 36.2072 12.9468C35.9902 13.0425 34.7922 10.614 35.0002 10.5C37.0002 10 40.9512 12.017 40.0682 15.265Z" fill="#5F0080"/>
</svg>
