<svg width="22" height="23" viewBox="0 0 22 23" fill="none" xmlns="http://www.w3.org/2000/svg">
<path d="M11.044 6.25681e-07C11.2254 -0.000233583 11.4008 0.0652924 11.5376 0.184439C11.6744 0.303585 11.7633 0.468276 11.788 0.648L11.794 0.750001V3.439L13.514 1.719C13.6412 1.59187 13.8098 1.51466 13.9891 1.50145C14.1685 1.48823 14.3466 1.53989 14.491 1.647L14.575 1.72C14.7019 1.84711 14.7789 2.01553 14.7921 2.19464C14.8053 2.37374 14.7538 2.55165 14.647 2.696L14.575 2.78L11.795 5.56L11.794 9.95L15.596 7.756L16.614 3.958C16.6625 3.77457 16.7787 3.61633 16.9392 3.51515C17.0997 3.41398 17.2926 3.3774 17.479 3.41278C17.6654 3.44816 17.8314 3.55287 17.9437 3.70581C18.056 3.85875 18.1061 4.04856 18.084 4.237L18.064 4.346L17.434 6.696L19.763 5.35C19.9277 5.25429 20.1227 5.22487 20.3084 5.2677C20.494 5.31054 20.6564 5.42242 20.7626 5.58063C20.8687 5.73884 20.9107 5.93152 20.8799 6.11955C20.8492 6.30757 20.748 6.47685 20.597 6.593L20.513 6.65L18.185 7.994L20.533 8.624C20.7063 8.67072 20.8571 8.77804 20.9581 8.92649C21.059 9.07493 21.1033 9.25465 21.083 9.433L21.063 9.543C21.0163 9.71651 20.9088 9.86746 20.7601 9.96841C20.6115 10.0693 20.4315 10.1136 20.253 10.093L20.145 10.073L16.347 9.055L12.544 11.249L16.346 13.445L20.145 12.427C20.3283 12.3767 20.5239 12.3979 20.6922 12.4863C20.8605 12.5747 20.9889 12.7237 21.0515 12.9032C21.1142 13.0827 21.1063 13.2793 21.0295 13.4532C20.9528 13.6271 20.8128 13.7653 20.638 13.84L20.533 13.876L18.183 14.506L20.513 15.85C20.6783 15.9448 20.8013 16.0989 20.8571 16.281C20.9129 16.4632 20.8973 16.6598 20.8134 16.8309C20.7295 17.0019 20.5837 17.1347 20.4055 17.2021C20.2273 17.2696 20.0301 17.2667 19.854 17.194L19.763 17.15L17.435 15.806L18.063 18.154C18.1096 18.3275 18.0923 18.512 18.0143 18.6739C17.9363 18.8358 17.8028 18.9643 17.638 19.036L17.533 19.073C17.3593 19.1195 17.1747 19.1021 17.0129 19.0239C16.851 18.9457 16.7226 18.8119 16.651 18.647L16.614 18.542L15.597 14.745L11.794 12.548V16.939L14.574 19.719C14.7085 19.8527 14.7875 20.0323 14.7948 20.2218C14.8022 20.4113 14.7376 20.5966 14.6139 20.7403C14.4902 20.8841 14.3166 20.9756 14.1281 20.9965C13.9396 21.0174 13.7502 20.9661 13.598 20.853L13.514 20.78L11.794 19.06V21.75C11.7939 21.94 11.7218 22.1229 11.592 22.2618C11.4623 22.4006 11.2847 22.4851 11.0951 22.498C10.9055 22.511 10.7181 22.4515 10.5707 22.3316C10.4233 22.2117 10.3269 22.0402 10.301 21.852L10.294 21.75V19.062L8.574 20.78C8.44702 20.907 8.27866 20.9842 8.09955 20.9976C7.92044 21.011 7.74247 20.9597 7.598 20.853L7.514 20.78C7.38699 20.653 7.30976 20.4847 7.29636 20.3055C7.28296 20.1264 7.33429 19.9485 7.441 19.804L7.514 19.72L10.294 16.94V12.549L6.493 14.744L5.475 18.542C5.42653 18.7254 5.31033 18.8837 5.14983 18.9848C4.98933 19.086 4.79645 19.1226 4.61005 19.0872C4.42365 19.0518 4.25758 18.9471 4.14531 18.7942C4.03303 18.6412 3.9829 18.4514 4.005 18.263L4.025 18.154L4.655 15.804L2.326 17.15C2.16123 17.2472 1.96554 17.2777 1.77898 17.2354C1.59242 17.193 1.42909 17.081 1.32242 16.9222C1.21574 16.7634 1.17378 16.5698 1.20512 16.3811C1.23646 16.1924 1.33873 16.0228 1.491 15.907L1.576 15.85L3.904 14.506L1.556 13.876C1.3825 13.8295 1.23146 13.7222 1.13034 13.5738C1.02922 13.4253 0.984745 13.2455 1.005 13.067L1.025 12.957C1.07174 12.7835 1.17922 12.6325 1.32788 12.5316C1.47654 12.4307 1.65649 12.3864 1.835 12.407L1.945 12.427L5.742 13.445L9.544 11.25L5.743 9.055L1.944 10.073C1.76068 10.1233 1.5651 10.1021 1.39682 10.0137C1.22853 9.92528 1.10009 9.77627 1.03747 9.59679C0.974848 9.41731 0.982716 9.22074 1.05948 9.04684C1.13625 8.87293 1.27619 8.73467 1.451 8.66L1.556 8.624L3.906 7.994L1.576 6.65C1.41071 6.55525 1.28767 6.40114 1.23187 6.21896C1.17608 6.03679 1.1917 5.8402 1.27558 5.66913C1.35946 5.49806 1.50531 5.36533 1.6835 5.29789C1.86169 5.23044 2.05887 5.23334 2.235 5.306L2.326 5.35L4.654 6.694L4.026 4.346C3.97944 4.17245 3.99673 3.98796 4.07473 3.82609C4.15273 3.66422 4.28626 3.53573 4.451 3.464L4.556 3.427C4.72967 3.38051 4.91426 3.39794 5.07615 3.47614C5.23804 3.55433 5.36645 3.68807 5.438 3.853L5.475 3.958L6.492 7.755L10.294 9.951V5.561L7.514 2.781C7.37809 2.64756 7.29805 2.4674 7.29011 2.2771C7.28217 2.0868 7.34693 1.9006 7.47125 1.7563C7.59557 1.612 7.77014 1.5204 7.95953 1.50011C8.14891 1.47981 8.33892 1.53233 8.491 1.647L8.575 1.72L10.295 3.439V0.750001C10.295 0.551088 10.374 0.360323 10.5147 0.21967C10.6553 0.0790182 10.8461 6.25681e-07 11.045 6.25681e-07H11.044Z" fill="#6FAFF3"/>
</svg>
