<svg width="103" height="32" viewBox="0 0 103 32" fill="none" xmlns="http://www.w3.org/2000/svg">
<g clip-path="url(#clip0_806_50088)">
<g opacity="0.5">
<path d="M21.4049 19.7601V24.703H19.0039V11.4525H21.3878V12.767C22.0183 11.838 23.0878 11.2598 24.367 11.2598C26.7509 11.2598 28.9233 13.1701 28.9233 16.1868C28.9233 19.2035 26.7151 21.1121 24.3841 21.1121C23.1054 21.1098 22.036 20.6368 21.4049 19.7601ZM26.5053 16.1675C26.5053 14.6773 25.3489 13.5033 23.894 13.5033C22.4044 13.5033 21.265 14.6972 21.265 16.1675C21.265 17.6377 22.4021 18.8311 23.894 18.8311C25.3489 18.8311 26.5053 17.6571 26.5053 16.1675Z" fill="black"/>
<path d="M50.8691 11.4525H53.2855V12.5743C53.8637 11.7521 54.775 11.2598 55.9144 11.2598C57.3358 11.2598 58.2983 11.838 58.8066 12.8545C59.4024 11.8732 60.4713 11.2626 61.7682 11.2626C64.1697 11.2626 65.379 12.7346 65.379 15.1009V20.9171H62.8899V15.4477C62.8899 14.1679 62.364 13.3793 61.1376 13.3793C60.0506 13.3793 59.3319 14.1184 59.3319 15.6052V20.9171H56.861V15.3783C56.861 14.1167 56.3351 13.3805 55.1605 13.3805C54.0234 13.3805 53.3031 14.1343 53.3031 15.6592V20.9171H50.8691V11.4525Z" fill="black"/>
<path d="M71.5137 11.2754C69.4948 11.2754 67.8261 12.3971 67.0398 14.0431C66.7172 14.7225 66.5511 15.4656 66.5537 16.2178C66.5537 18.9695 68.5163 21.1255 71.566 21.1255C73.5616 21.1255 74.8636 20.338 75.8045 19.1037L73.8265 17.9615C73.3495 18.6256 72.6326 19.0417 71.6013 19.0417C70.1992 19.0417 69.1997 18.2702 68.8847 17.0433H76.3407C76.3816 16.7706 76.4023 16.4952 76.4026 16.2195V16.1296C76.4038 13.3261 74.3507 11.2754 71.5137 11.2754ZM68.9552 15.1489C69.3407 14.0448 70.2873 13.3261 71.5137 13.3261C72.7753 13.3261 73.6867 13.9748 74.0022 15.1489H68.9552Z" fill="black"/>
<path d="M77.6104 11.4522H80.0289V12.6462C80.6424 11.7877 81.6208 11.2617 82.7983 11.2617C85.0418 11.2617 86.4614 12.7337 86.4614 15.2052V20.9168H83.9901V15.5725C83.9901 14.2233 83.3412 13.3819 82.062 13.3819C80.9249 13.3819 80.0465 14.2233 80.0465 15.6953V20.9168H77.6104V11.4522Z" fill="black"/>
<path d="M87.1045 11.4528H88.8568V9.40203L91.2407 8V11.4528H93.7292V13.5911H91.2407V17.4822C91.2407 18.4812 91.6614 18.8314 92.2749 18.8314C92.6075 18.8314 92.8707 18.7262 93.151 18.4812L94.2551 20.3739C93.6417 20.8287 92.8707 21.0925 91.994 21.0925C90.0138 21.0925 88.8568 20.1459 88.8568 17.5675V13.5877H87.1045V11.4528Z" fill="black"/>
<path d="M37.2173 12.6618C36.5691 11.7857 35.5349 11.2598 34.2904 11.2598C31.8718 11.2598 29.6982 13.1701 29.6982 16.1845C29.6982 19.199 31.9241 21.1098 34.2557 21.1098C35.4826 21.1098 36.5515 20.5487 37.2173 19.6202V20.9171H39.6012V11.4554H37.2173V12.6618ZM34.7287 18.8311C33.2738 18.8311 32.0998 17.6571 32.0998 16.1675C32.0998 14.6779 33.2738 13.5033 34.7287 13.5033C36.2183 13.5033 37.3577 14.6972 37.3577 16.1675C37.3577 17.6377 36.2183 18.8311 34.7287 18.8311Z" fill="black"/>
<path d="M47.6701 11.4531L45.3391 17.5525L42.8852 11.4531H40.3086L44.1121 20.5146L44.1616 20.6329L42.6271 24.6479L42.6191 24.6684H45.1429L50.1939 11.4531H47.6701Z" fill="black"/>
<path d="M96.5134 17.8551C96.9364 18.6948 97.6915 19.1309 98.6904 19.1286C99.6723 19.1258 100.197 18.6516 100.196 18.0905C100.196 17.4082 99.1765 17.2518 97.9661 17.0102C96.3702 16.6816 94.598 16.1955 94.5923 14.1971C94.5883 12.6051 96.1274 11.2133 98.4584 11.2247C100.311 11.2196 101.471 11.8643 102.333 12.9622L100.325 14.1294C99.9372 13.4994 99.3402 13.1327 98.4635 13.135C97.5169 13.1378 97.0621 13.5245 97.0638 14.0504C97.0638 14.6462 97.837 14.802 99.2243 15.0965C100.802 15.4075 102.663 15.9459 102.668 17.979C102.672 19.4516 101.36 21.1202 98.6091 21.11C96.5339 21.1157 95.162 20.3999 94.3677 19.1025L94.3643 19.0968L96.5134 17.8551Z" fill="black"/>
<path d="M15.2218 15.6032C15.0421 14.065 14.308 12.6449 13.1568 11.6089C12.0057 10.5728 10.5164 9.99181 8.96776 9.97461H8.89726C8.65028 9.97472 8.40351 9.98895 8.15815 10.0173C7.29023 10.1172 6.45231 10.3953 5.69692 10.8343C5.68043 10.8439 5.66508 10.8536 5.64859 10.8627L5.60652 10.8877C1.96555 13.0561 0.666992 18.0639 0.666992 21.1107L3.59898 19.4182C4.6326 21.387 6.61512 22.6845 8.82563 22.7083H8.89613C9.14312 22.708 9.38989 22.6936 9.63524 22.6651C11.3125 22.4693 12.8432 21.6154 13.8909 20.291C14.9385 18.9667 15.4173 17.2805 15.2218 15.6032Z" fill="black"/>
</g>
</g>
<defs>
<clipPath id="clip0_806_50088">
<rect width="102" height="32" fill="white" transform="translate(0.666992)"/>
</clipPath>
</defs>
</svg>
