<svg width="35" height="34" viewBox="0 0 35 34" fill="none" xmlns="http://www.w3.org/2000/svg">
<g clip-path="url(#clip0_806_50067)">
<mask id="mask0_806_50067" style="mask-type:alpha" maskUnits="userSpaceOnUse" x="0" y="0" width="35" height="34">
<path fill-rule="evenodd" clip-rule="evenodd" d="M17.3235 0.0195312C7.93995 0.0195312 0.333008 7.62648 0.333008 17.0102C0.333008 26.3936 7.93995 34.0005 17.3235 34.0005C26.707 34.0005 34.3138 26.3936 34.3138 17.0102C34.3138 7.62648 26.707 0.0195312 17.3235 0.0195312Z" fill="white"/>
</mask>
<g mask="url(#mask0_806_50067)">
<path fill-rule="evenodd" clip-rule="evenodd" d="M17.3235 0.0195312C7.93995 0.0195312 0.333008 7.62648 0.333008 17.0102C0.333008 26.3936 7.93995 34.0005 17.3235 34.0005C26.707 34.0005 34.3138 26.3936 34.3138 17.0102C34.3138 7.62648 26.707 0.0195312 17.3235 0.0195312Z" fill="url(#paint0_radial_806_50067)"/>
</g>
<path fill-rule="evenodd" clip-rule="evenodd" d="M14.5495 25.8256C14.3674 25.9462 14.1606 25.9604 13.9272 25.9591C13.9713 25.754 14.0076 25.5743 14.0509 25.3965C14.059 25.3634 14.0667 25.3124 14.1197 25.3124C14.281 25.3124 14.4238 25.3144 14.5717 25.3684C14.7246 25.4241 14.7162 25.7152 14.5495 25.8256ZM14.2314 26.8887C14.2711 27.0472 14.2913 27.2107 14.3152 27.3726C14.3298 27.4722 14.3812 27.5135 14.4809 27.5105C14.614 27.5066 14.7473 27.5107 14.8804 27.5094C15.0616 27.5077 15.0883 27.4773 15.0438 27.2956C14.965 26.9745 14.9176 26.5808 14.7378 26.3331C14.7716 26.3159 14.8903 26.2716 14.9526 26.2382C15.2832 26.0611 15.4467 25.743 15.3933 25.383C15.3472 25.0733 15.1458 24.8617 14.7587 24.8136C14.3746 24.7659 13.9833 24.7719 13.595 24.7677C13.5716 24.7673 13.5231 24.7661 13.4958 24.7888C13.4658 24.8134 13.4577 24.8631 13.4518 24.8897C13.2697 25.7092 13.0967 26.5306 12.9218 27.3515C12.8995 27.456 12.9421 27.5089 13.0487 27.5093C13.1717 27.5097 13.295 27.5039 13.4175 27.5113C13.5408 27.5189 13.6037 27.4773 13.6267 27.3482C13.6707 27.1014 13.7265 26.8566 13.787 26.6133C13.8002 26.5608 13.8126 26.4697 13.8463 26.471C13.8463 26.471 13.995 26.4578 14.0333 26.4629C14.0719 26.468 14.168 26.6354 14.2314 26.8887Z" fill="#C3C3C3"/>
<path fill-rule="evenodd" clip-rule="evenodd" d="M11.5713 26.1881C11.6342 25.904 11.6941 25.6325 11.7557 25.3613C11.7598 25.3432 11.7776 25.3132 11.7876 25.3136C11.9281 25.3211 12.0781 25.3065 12.2041 25.3545C12.2665 25.3783 12.3175 25.5194 12.3167 25.6069C12.3137 25.9749 12.0048 26.2215 11.5713 26.1881ZM12.4294 24.8173C12.2142 24.7757 11.7729 24.756 11.7725 24.7603C11.6188 24.7603 11.4651 24.7609 11.3113 24.7601C11.2166 24.7595 11.1578 24.7984 11.1374 24.8961C10.9648 25.7131 10.7912 26.5295 10.6167 27.3462C10.5921 27.4612 10.6393 27.5105 10.7521 27.51C10.8801 27.5092 11.0085 27.5062 11.1364 27.5113C11.2411 27.5154 11.2966 27.4761 11.3161 27.3692C11.3464 27.203 11.3958 27.04 11.4221 26.8735C11.4314 26.8141 11.4411 26.7675 11.4718 26.7426C11.5025 26.7177 11.5539 26.7145 11.6121 26.7064C11.8591 26.6724 12.1124 26.6387 12.3456 26.5558C12.7924 26.397 13.0202 26.0586 13.0326 25.582C13.0436 25.164 12.8408 24.8969 12.4294 24.8173Z" fill="#C3C3C3"/>
<path fill-rule="evenodd" clip-rule="evenodd" d="M18.4436 25.1842C18.6822 24.6821 18.5305 24.773 19.1017 24.7627C19.1373 24.762 19.1733 24.7614 19.2089 24.7638C19.367 24.7743 19.4058 24.8334 19.3332 24.9697C18.8996 25.7825 18.4654 26.5949 18.025 27.4039C17.9973 27.4544 17.918 27.5008 17.8593 27.5057C17.6966 27.5195 17.532 27.509 17.3682 27.5111C17.2657 27.5122 17.2256 27.4633 17.215 27.3632C17.1289 26.5593 17.0406 25.7557 16.949 24.9524C16.9336 24.8176 16.9843 24.7603 17.1159 24.7619C17.2488 24.7636 17.3821 24.7657 17.5151 24.7619C17.6549 24.7576 17.7009 24.8245 17.7031 24.959L17.7376 26.6908L18.4436 25.1842Z" fill="#C3C3C3"/>
<path fill-rule="evenodd" clip-rule="evenodd" d="M9.64731 26.2364C9.49272 26.2918 9.15082 26.323 9.14271 26.306C9.19705 26.1155 9.28729 25.9471 9.48748 25.8748C9.59154 25.8371 9.71499 25.815 9.78013 25.9487C9.82812 26.047 9.77012 26.1925 9.64731 26.2364ZM10.0396 25.411C9.80603 25.33 9.56676 25.3309 9.3286 25.3899C8.60936 25.568 8.33482 26.2861 8.4079 26.8811C8.45143 27.2349 8.66592 27.4672 9.02149 27.51C9.266 27.5393 9.52212 27.5306 9.76599 27.4925C10.115 27.4378 10.1122 27.4197 10.1743 27.0716C10.212 26.8611 10.1768 26.8389 9.97174 26.8895C9.75996 26.9418 9.54309 26.9774 9.32638 27.0033C9.22072 27.016 9.12301 26.9737 9.10554 26.8168C9.17052 26.812 9.22597 26.8088 9.28126 26.8037C9.59297 26.7759 9.90565 26.7478 10.1781 26.5719C10.4172 26.4177 10.5116 26.1906 10.4784 25.9126C10.4468 25.6485 10.2792 25.4941 10.0396 25.411Z" fill="#C3C3C3"/>
<path fill-rule="evenodd" clip-rule="evenodd" d="M24.1172 27.3595C24.1011 27.5102 24.168 27.5106 24.4359 27.5089C24.715 27.5071 24.769 27.537 24.8018 27.4012L24.9994 26.4234L26.133 24.987C26.1654 24.9444 26.1969 24.8812 26.1842 24.8348C26.1659 24.7678 26.0861 24.7736 26.0861 24.7736H25.5428C25.4505 24.7736 25.4414 24.8095 25.4414 24.8095C25.3146 24.9794 24.8078 25.7549 24.7665 25.8089C24.7441 25.7291 24.6049 25.1772 24.562 24.9513C24.5431 24.8524 24.5031 24.797 24.4306 24.7774C24.4025 24.7698 23.9111 24.7747 23.886 24.779C23.7808 24.7965 23.7698 24.8521 23.8196 24.9959L24.3151 26.3926L24.1172 27.3595Z" fill="#C3C3C3"/>
<path fill-rule="evenodd" clip-rule="evenodd" d="M23.2389 26.9938C23.2369 26.9093 23.1883 26.8864 23.0742 26.9086C22.9237 26.9377 22.7749 26.9814 22.6231 26.9962C22.3432 27.0232 22.2386 26.9244 22.2315 26.6404C22.2224 26.2792 22.316 25.9401 22.4854 25.6241C22.6565 25.3048 22.9299 25.1996 23.2752 25.3059C23.5928 25.4036 23.5896 25.4029 23.6625 25.0693C23.6862 24.9605 23.6565 24.9001 23.5557 24.8518C23.4428 24.7975 23.2958 24.7252 23.0122 24.709C22.4655 24.709 22.1708 24.9152 21.9126 25.3084C21.6427 25.7196 21.5224 26.1765 21.534 26.6627C21.5475 27.2405 21.8708 27.5413 22.4515 27.5426C22.5535 27.5429 22.6559 27.5314 22.7571 27.5184C23.1047 27.4738 23.1509 27.4649 23.2054 27.2043C23.2132 27.1671 23.2394 27.013 23.2389 26.9938Z" fill="#C3C3C3"/>
<path fill-rule="evenodd" clip-rule="evenodd" d="M16.583 24.7636C16.4653 24.7614 16.3472 24.7675 16.2298 24.7605C16.0908 24.7522 16.0328 24.8131 16.0048 24.9489C15.8547 25.6805 15.6966 26.4106 15.5397 27.1409C15.5271 27.1989 15.5166 27.2479 15.5091 27.289C15.5053 27.3095 15.5023 27.3284 15.5004 27.3453C15.4982 27.3623 15.4971 27.3775 15.4971 27.3912C15.4961 27.5116 15.577 27.5113 15.8383 27.511C15.9049 27.511 15.9715 27.5087 16.0379 27.5116C16.1289 27.5153 16.1791 27.4774 16.1988 27.3855C16.3728 26.5698 16.5484 25.7546 16.7252 24.9395C16.7517 24.8169 16.6988 24.7657 16.583 24.7636Z" fill="#C3C3C3"/>
<path fill-rule="evenodd" clip-rule="evenodd" d="M19.998 26.4362L20.4556 25.5097L20.4978 26.4362H19.998ZM21.2719 27.3052C21.2554 27.132 21.2314 26.9597 21.2104 26.7871C21.1359 26.1726 21.0587 25.5585 20.9884 24.9433C20.973 24.807 20.9085 24.757 20.7781 24.7621C20.6502 24.7668 20.5218 24.7692 20.3942 24.7608C20.2546 24.7517 20.171 24.8035 20.103 24.9308C19.6888 25.7074 19.266 26.4794 18.8466 27.2533L18.787 27.351C18.7255 27.5073 18.8466 27.5092 18.8466 27.5092H19.379C19.4994 27.5092 19.5149 27.4422 19.5149 27.4422L19.7482 26.9732H20.4734C20.5579 26.9732 20.5504 27.0038 20.5504 27.0038C20.5504 27.0038 20.5477 27.1808 20.5579 27.3499C20.5684 27.5191 20.6478 27.5092 20.6478 27.5092H21.0855C21.273 27.5075 21.2895 27.4925 21.2719 27.3052Z" fill="#C3C3C3"/>
<path fill-rule="evenodd" clip-rule="evenodd" d="M20.0785 29.3171C20.1246 29.3263 20.1738 29.3325 20.2474 29.3325C20.5151 29.3325 20.6905 29.1603 20.6905 28.9542C20.6905 28.7542 20.5458 28.6897 20.3737 28.6897C20.2906 28.6897 20.2321 28.6957 20.1951 28.7049L20.0785 29.3171ZM19.82 28.3913C19.9522 28.3575 20.1613 28.3359 20.3613 28.3359C20.5458 28.3359 20.7612 28.3667 20.9118 28.4742C21.0502 28.5697 21.1363 28.7141 21.1363 28.9142C21.1363 29.1755 21.0164 29.3725 20.8535 29.4985C20.6843 29.6309 20.4444 29.6892 20.1923 29.6892C20.1184 29.6892 20.0567 29.6831 20.0107 29.6769L19.8693 30.4243H19.4355L19.82 28.3913Z" fill="white"/>
<path fill-rule="evenodd" clip-rule="evenodd" d="M21.5334 28.3516H21.9762L21.6564 30.0371H22.453L22.3792 30.4246H21.1396L21.5334 28.3516Z" fill="white"/>
<path fill-rule="evenodd" clip-rule="evenodd" d="M23.4714 28.3516L23.2437 29.5451C23.2285 29.6158 23.2223 29.6987 23.2223 29.7912C23.2223 29.957 23.3238 30.0864 23.5237 30.0864C23.7542 30.0864 23.9082 29.9326 23.9821 29.5481L24.2096 28.3516H24.6525L24.428 29.5296C24.3081 30.1571 24.0311 30.4586 23.4682 30.4586C23.0409 30.4586 22.7793 30.2401 22.7793 29.7972C22.7793 29.7079 22.7917 29.6064 22.8102 29.508L23.0286 28.3516H23.4714Z" fill="white"/>
<path fill-rule="evenodd" clip-rule="evenodd" d="M24.7355 29.9455C24.8585 30.0193 25.0339 30.0776 25.2245 30.0776C25.3967 30.0776 25.5536 29.9977 25.5536 29.8347C25.5536 29.7178 25.4644 29.6409 25.2738 29.5425C25.0523 29.4226 24.8432 29.2626 24.8432 28.9919C24.8432 28.5735 25.2091 28.3184 25.6613 28.3184C25.9134 28.3184 26.0612 28.3737 26.1503 28.4229L26.0119 28.792C25.9442 28.7551 25.7968 28.6967 25.6246 28.6997C25.4184 28.6997 25.3106 28.8042 25.3106 28.9181C25.3106 29.0381 25.4368 29.112 25.6122 29.2103C25.8642 29.3425 26.0242 29.5119 26.0242 29.7578C26.0242 30.2192 25.6428 30.4561 25.1816 30.4561C24.8923 30.4561 24.6862 30.3822 24.5879 30.3083L24.7355 29.9455Z" fill="white"/>
<path fill-rule="evenodd" clip-rule="evenodd" d="M30.1734 19.7135C29.971 19.1036 29.5243 18.8421 28.8438 18.936C28.8236 18.9388 28.806 18.9417 28.7937 18.9425C28.4893 18.9553 28.1825 19.1803 27.6508 19.6689C27.0146 17.7291 26.218 15.521 25.6691 14.7748C24.8709 13.6896 23.9972 13.1304 23.2351 12.849C24.5611 12.1255 25.4606 10.7188 25.4606 9.10183C25.4606 6.74582 23.5506 4.83594 21.1946 4.83594C18.8387 4.83594 16.9288 6.74582 16.9288 9.10183C16.9288 10.7369 17.8491 12.1565 19.1994 12.8725C18.4615 13.161 17.5922 13.7186 16.7204 14.7748C16.0598 15.575 15.1912 18.2515 14.5841 20.335C14.2896 20.2983 13.9988 20.2529 13.7124 20.1997C14.4747 17.8743 15.2474 15.6451 15.6092 14.9905C16.4486 13.4718 17.5837 12.7443 17.5837 12.7443C14.6831 9.45216 16.8307 6.44602 17.2545 5.916C16.9932 5.86182 16.7223 5.83322 16.4447 5.83322C14.2478 5.83322 12.4669 7.61425 12.4669 9.81106C12.4669 11.3357 13.325 12.6593 14.5841 13.3271C13.8962 13.5961 13.0856 14.1161 12.2726 15.1008C11.7567 15.7255 11.1055 17.5764 10.5748 19.3025C10.2987 19.1965 10.0334 19.0875 9.77837 18.9773C10.1999 17.7333 10.6026 16.5947 10.8689 15.9578C11.6843 14.0074 12.9952 13.288 12.9952 13.288C12.9952 13.288 10.0823 10.4515 12.5956 6.82208C12.2942 6.7455 11.9785 6.70451 11.6534 6.70451C9.54609 6.70451 7.83783 8.41277 7.83783 10.52C7.83783 11.9825 8.66098 13.2521 9.86878 13.8925C9.20879 14.1505 8.50385 14.6493 7.72407 15.594C7.45382 15.9212 7.13956 16.5998 6.82419 17.4177C6.55362 17.2445 6.40236 17.1362 6.39442 17.1305C6.19471 16.9854 5.91477 17.0294 5.76923 17.2294C5.62386 17.4293 5.66803 17.7093 5.8679 17.8546C6.05172 17.9886 10.4328 21.1347 15.7511 21.3295C20.879 21.5169 23.3733 19.9761 24.5717 19.2356L24.7395 19.1325C24.8168 19.0851 25.0787 18.9385 25.1945 19.0359C25.314 19.1368 25.3953 19.4889 25.2371 19.888C24.9996 20.4866 24.2651 21.207 23.7209 21.5311C23.3774 21.7359 23.1284 22.1981 23.3253 22.5879C23.7006 23.3315 24.9829 22.7934 25.4044 22.6164C26.1808 22.2904 27.0438 21.4725 27.8054 20.751C28.179 20.3968 28.6874 19.9151 28.8681 19.8346C28.897 19.832 28.9302 19.8279 28.9666 19.8228C29.2141 19.7885 29.2578 19.7976 29.3234 19.9954C29.4256 20.3028 30.2082 23.0887 26.3414 26.2193C26.1492 26.375 26.1195 26.6568 26.275 26.8489C26.3637 26.9582 26.4929 27.0149 26.6233 27.0149C26.7221 27.0149 26.8219 26.9824 26.9047 26.9152C30.1966 24.2501 30.7228 21.3701 30.1734 19.7135Z" fill="white"/>
</g>
<defs>
<radialGradient id="paint0_radial_806_50067" cx="0" cy="0" r="1" gradientUnits="userSpaceOnUse" gradientTransform="translate(11.4436 4.21183) scale(31.0439 31.044)">
<stop stop-color="#BCBCBA"/>
<stop offset="1" stop-color="#676766"/>
</radialGradient>
<clipPath id="clip0_806_50067">
<rect width="34" height="34" fill="white" transform="translate(0.333008)"/>
</clipPath>
</defs>
</svg>
