<svg width="56" height="56" viewBox="0 0 56 56" fill="none" xmlns="http://www.w3.org/2000/svg">
<path d="M24.666 35C24.666 35.884 25.0172 36.7317 25.6422 37.3568C26.2673 37.9818 27.115 38.333 27.999 38.333C28.883 38.333 29.7307 37.9818 30.3558 37.3568C30.9809 36.7317 31.332 35.884 31.332 35" stroke="#E1E1E1" stroke-width="1.6"/>
<path fill-rule="evenodd" clip-rule="evenodd" d="M37.998 34.738H18L18.013 34.708C18.089 34.573 18.484 34.004 19.199 32.999L19.949 31.949V25.314C19.949 20.829 23.387 17.174 27.69 17.006L28 17C32.446 17 36.05 20.722 36.05 25.314V31.948L37.757 34.359C37.93 34.612 38.011 34.739 37.999 34.739L37.998 34.738Z" stroke="#E1E1E1" stroke-width="1.6" stroke-linecap="round" stroke-linejoin="round"/>
<rect x="0.5" y="0.5" width="55" height="55" rx="3.5" stroke="#E1E1E1"/>
</svg>
