<svg width="56" height="56" viewBox="0 0 56 56" fill="none" xmlns="http://www.w3.org/2000/svg">
<path fill-rule="evenodd" clip-rule="evenodd" d="M38.9269 18.8927C38.3269 18.2924 37.6146 17.8161 36.8305 17.4912C36.0465 17.1663 35.2061 16.999 34.3574 16.999C33.5086 16.999 32.6682 17.1663 31.8842 17.4912C31.1001 17.8161 30.3878 18.2924 29.7879 18.8927L27.9589 20.7207L26.1319 18.8927C24.9201 17.6807 23.2765 16.9996 21.5626 16.9995C19.8487 16.9993 18.2049 17.6799 16.9929 18.8917C15.7808 20.1035 15.0998 21.7471 15.0996 23.461C15.0994 25.1749 15.7801 26.8187 16.9919 28.0307L18.8199 29.8597L27.2519 38.2937C27.4394 38.4812 27.6937 38.5865 27.9589 38.5865C28.224 38.5865 28.4783 38.4812 28.6659 38.2937L37.0989 29.8597L38.9269 28.0317C39.5271 27.4318 40.0032 26.7195 40.328 25.9356C40.6528 25.1516 40.82 24.3113 40.82 23.4627C40.82 22.6141 40.6528 21.7738 40.328 20.9899C40.0032 20.2059 39.5271 19.4936 38.9269 18.8937V18.8927Z" stroke="#5F0080" stroke-width="1.7" stroke-linecap="round"/>
<rect x="0.5" y="0.5" width="55" height="55" rx="3.5" stroke="#E1E1E1"/>
</svg>
