<svg width="12" height="14" viewBox="0 0 12 14" fill="none" xmlns="http://www.w3.org/2000/svg">
<g clip-path="url(#clip0_1039_4812)">
<path fill-rule="evenodd" clip-rule="evenodd" d="M11.043 12.575C11.0425 12.6432 11.0151 12.7084 10.9668 12.7565C10.9185 12.8046 10.8532 12.8317 10.785 12.832H1.214C1.14583 12.8317 1.08051 12.8046 1.03221 12.7565C0.983908 12.7084 0.956526 12.6432 0.956 12.575V5.42C0.956 5.278 1.073 5.162 1.214 5.162H10.784C10.928 5.162 11.044 5.278 11.044 5.42V12.575H11.043ZM3.685 3.237C3.68579 2.63238 3.9264 2.05276 4.35403 1.62532C4.78165 1.19788 5.36138 0.957529 5.966 0.957C6.5707 0.957265 7.15058 1.19753 7.57826 1.62503C8.00595 2.05253 8.24647 2.6323 8.247 3.237V4.205H3.685V3.237ZM10.785 4.205H9.205V3.237C9.20394 2.3783 8.86215 1.55512 8.25467 0.948206C7.6472 0.341294 6.8237 0.000264295 5.965 0C5.10708 0.00132358 4.28472 0.342852 3.67826 0.949678C3.07181 1.5565 2.73079 2.37908 2.73 3.237V4.205H1.214C0.544 4.205 0 4.75 0 5.42V12.575C0 13.244 0.545 13.789 1.214 13.789H10.784C11.455 13.789 12 13.244 12 12.575V5.42C12 4.75 11.455 4.205 10.785 4.205Z" fill="#B5B5B5"/>
<path fill-rule="evenodd" clip-rule="evenodd" d="M5 8.2002C5 8.5432 5.184 8.8322 5.448 9.0122V10.3422H6.551V9.0122C6.68673 8.92408 6.79868 8.80392 6.87698 8.66231C6.95529 8.5207 6.99754 8.36199 7 8.2002C7 7.93498 6.89464 7.68063 6.70711 7.49309C6.51957 7.30555 6.26522 7.2002 6 7.2002C5.73478 7.2002 5.48043 7.30555 5.29289 7.49309C5.10536 7.68063 5 7.93498 5 8.2002Z" fill="#B5B5B5"/>
</g>
<defs>
<clipPath id="clip0_1039_4812">
<rect width="12" height="14" fill="white"/>
</clipPath>
</defs>
</svg>
