<svg width="24" height="24" viewBox="0 0 24 24" fill="none" xmlns="http://www.w3.org/2000/svg">
<g clip-path="url(#clip0_1039_11640)">
<path d="M12 24C18.6274 24 24 18.6274 24 12C24 5.37258 18.6274 0 12 0C5.37258 0 0 5.37258 0 12C0 18.6274 5.37258 24 12 24Z" fill="#A864D8"/>
<path fill-rule="evenodd" clip-rule="evenodd" d="M11.946 7.5C14.402 7.5 16.392 9.49 16.392 11.946C16.392 12.853 16.121 13.696 15.655 14.399L16.5 15.242L15.242 16.5L14.399 15.655C13.696 16.121 12.853 16.392 11.946 16.392C9.491 16.392 7.5 14.402 7.5 11.946C7.5 9.491 9.49 7.5 11.946 7.5ZM11.946 9.278C10.473 9.278 9.278 10.473 9.278 11.946C9.278 13.419 10.473 14.614 11.946 14.614C12.358 14.614 12.748 14.52 13.096 14.354L12.727 13.984L13.985 12.727L14.354 13.096C14.52 12.748 14.614 12.358 14.614 11.946C14.614 10.473 13.419 9.278 11.946 9.278Z" fill="white"/>
</g>
<defs>
<clipPath id="clip0_1039_11640">
<rect width="24" height="24" fill="white"/>
</clipPath>
</defs>
</svg>
