<svg width="52" height="52" viewBox="0 0 52 52" fill="none" xmlns="http://www.w3.org/2000/svg">
<path d="M26 51C12.1929 51 1 39.8071 1 26C1 12.1929 12.1929 1 26 1C39.8071 1 51 12.1929 51 26C51 39.8071 39.8071 51 26 51Z" fill="black" fill-opacity="0.2"/>
<path d="M28.715 34.699C28.5448 34.8731 28.3169 34.9791 28.0741 34.9972C27.8312 35.0152 27.5901 34.944 27.396 34.797L27.301 34.715L19.301 26.898C19.1289 26.7297 19.0231 26.505 19.0033 26.2651C18.9835 26.0252 19.0508 25.7862 19.193 25.592L19.273 25.496L26.996 17.314C27.1706 17.1289 27.4091 17.0173 27.663 17.0018C27.917 16.9864 28.1672 17.0684 28.3629 17.231C28.5585 17.3936 28.6848 17.6247 28.7161 17.8772C28.7473 18.1297 28.6811 18.3846 28.531 18.59L28.451 18.686L21.402 26.155L28.699 33.285C28.8732 33.4552 28.9792 33.6831 28.9972 33.926C29.0153 34.1688 28.9441 34.4099 28.797 34.604L28.715 34.699Z" fill="white"/>
</svg>
