<svg width="84" height="24" viewBox="0 0 84 24" fill="none" xmlns="http://www.w3.org/2000/svg">
<g clip-path="url(#clip0_806_45710)">
<path fill-rule="evenodd" clip-rule="evenodd" d="M0 5H16V6.7H0V5ZM0 11.15H16V12.85H0V11.15ZM0 17.3H16V19H0V17.3Z" fill="#333333"/>
</g>
<path d="M35.8125 6.65625H29.3281V8.0625H34.0859C34.0312 8.80469 33.9141 9.5 33.7344 10.1641L28.5938 10.4844L28.8125 11.9844L33.2109 11.5703C32.3906 13.2422 30.9297 14.6562 28.4844 15.8594L29.4375 17.1719C34.6406 14.5859 35.8047 10.9219 35.8125 6.65625ZM37.7969 19.3594H39.5312V12.2188H41.625V10.7969H39.5312V5.26562H37.7969V19.3594ZM48.0469 6.89062H42.7656V16.1719H43.6875C45.8203 16.1719 47.1719 16.1484 48.7969 15.8281L48.6406 14.4375C47.2578 14.6719 46.1016 14.75 44.4219 14.7734V12.0312H47.4531V10.6875H44.4219V8.26562H48.0469V6.89062ZM48.1406 11.8906H49.8906V18.7031H51.5156V5.54688H49.8906V10.4844H48.1406V11.8906ZM52.7969 19.3906H54.4844V5.26562H52.7969V19.3906ZM67.6562 6.5625H57.4688V7.95312H65.9062C65.8984 9.64844 65.8984 11.6562 65.3438 14.4062L67.0938 14.5938C67.6406 11.6406 67.6406 9.67969 67.6562 7.92188V6.5625ZM56.125 17.5625H69V16.1406H62.5938V11.2344H60.875V16.1406H56.125V17.5625ZM81.7188 5.26562H80V19.4062H81.7188V5.26562ZM70.7188 7.90625H75.6094V10.4219H70.7344V16.0625H71.9688C74.5078 16.0703 76.6172 15.9766 79.0156 15.5625L78.8594 14.1406C76.6562 14.5078 74.7422 14.625 72.5156 14.6406V11.7969H77.375V6.5H70.7188V7.90625Z" fill="#333333"/>
<defs>
<clipPath id="clip0_806_45710">
<rect width="16" height="14" fill="white" transform="translate(0 5)"/>
</clipPath>
</defs>
</svg>
