<svg width="36" height="36" viewBox="0 0 36 36" fill="none" xmlns="http://www.w3.org/2000/svg">
<g clip-path="url(#clip0_806_45979)">
<path fill-rule="evenodd" clip-rule="evenodd" d="M30.8442 10.207L28.1242 21.777H12.5342L9.82422 10.207H30.8442Z" stroke="#333333" stroke-width="1.7" stroke-linecap="square" stroke-linejoin="round"/>
<path d="M25.6839 29.467C26.8658 29.467 27.8239 28.5089 27.8239 27.327C27.8239 26.1451 26.8658 25.187 25.6839 25.187C24.5021 25.187 23.5439 26.1451 23.5439 27.327C23.5439 28.5089 24.5021 29.467 25.6839 29.467Z" stroke="#333333" stroke-width="1.7" stroke-linecap="square" stroke-linejoin="round"/>
<path d="M14.974 29.467C16.1559 29.467 17.114 28.5089 17.114 27.327C17.114 26.1451 16.1559 25.187 14.974 25.187C13.7921 25.187 12.834 26.1451 12.834 27.327C12.834 28.5089 13.7921 29.467 14.974 29.467Z" stroke="#333333" stroke-width="1.7" stroke-linecap="square" stroke-linejoin="round"/>
<path d="M5.16406 6.547H8.96406L10.7241 14.047" stroke="#333333" stroke-width="1.7" stroke-linecap="square" stroke-linejoin="round"/>
</g>
<defs>
<clipPath id="clip0_806_45979">
<rect width="36" height="36" fill="white"/>
</clipPath>
</defs>
</svg>
