<svg width="36" height="36" viewBox="0 0 36 36" fill="none" xmlns="http://www.w3.org/2000/svg">
<g clip-path="url(#clip0_806_45971)">
<path fill-rule="evenodd" clip-rule="evenodd" d="M18.0062 30C18.0062 30 8.7002 22.544 8.7002 15.306C8.7002 12.8379 9.68065 10.4709 11.4259 8.72566C13.1711 6.98045 15.5381 6 18.0062 6C20.4743 6 22.8413 6.98045 24.5865 8.72566C26.3317 10.4709 27.3122 12.8379 27.3122 15.306C27.3122 22.544 18.0062 30 18.0062 30Z" stroke="#333333" stroke-width="1.7" stroke-linecap="round" stroke-linejoin="round"/>
<path d="M17.9119 17.907C19.4495 17.907 20.6959 16.6606 20.6959 15.123C20.6959 13.5854 19.4495 12.339 17.9119 12.339C16.3744 12.339 15.1279 13.5854 15.1279 15.123C15.1279 16.6606 16.3744 17.907 17.9119 17.907Z" stroke="#333333" stroke-width="1.7" stroke-linecap="square" stroke-linejoin="round"/>
</g>
<defs>
<clipPath id="clip0_806_45971">
<rect width="36" height="36" fill="white"/>
</clipPath>
</defs>
</svg>
