<svg width="36" height="36" viewBox="0 0 36 36" fill="none" xmlns="http://www.w3.org/2000/svg">
<g clip-path="url(#clip0_806_45966)">
<path d="M26.0806 26.081L21.9606 21.961M16.4666 23.334C17.3684 23.334 18.2614 23.1564 19.0945 22.8113C19.9276 22.4662 20.6847 21.9603 21.3223 21.3227C21.96 20.685 22.4658 19.928 22.8109 19.0949C23.156 18.2617 23.3336 17.3688 23.3336 16.467C23.3336 15.5652 23.156 14.6722 22.8109 13.8391C22.4658 13.0059 21.96 12.2489 21.3223 11.6113C20.6847 10.9736 19.9276 10.4678 19.0945 10.1227C18.2614 9.77759 17.3684 9.59998 16.4666 9.59998C14.6454 9.59998 12.8987 10.3235 11.6109 11.6113C10.3231 12.8991 9.59961 14.6457 9.59961 16.467C9.59961 18.2882 10.3231 20.0349 11.6109 21.3227C12.8987 22.6105 14.6454 23.334 16.4666 23.334V23.334Z" stroke="#5F0080" stroke-width="1.7" stroke-linecap="round"/>
</g>
<defs>
<clipPath id="clip0_806_45966">
<rect width="36" height="36" fill="white"/>
</clipPath>
</defs>
</svg>
